<?xml version="1.0" encoding="UTF-8" standalone="no"?>
<!DOCTYPE svg PUBLIC "-//W3C//DTD SVG 1.1//EN" "http://www.w3.org/Graphics/SVG/1.1/DTD/svg11.dtd">
<svg width="100%" height="100%" viewBox="0 0 1080 1080" version="1.1" xmlns="http://www.w3.org/2000/svg" xmlns:xlink="http://www.w3.org/1999/xlink" xml:space="preserve" xmlns:serif="http://www.serif.com/" style="fill-rule:evenodd;clip-rule:evenodd;stroke-linejoin:round;stroke-miterlimit:2;">
    <g transform="matrix(1,0,0,1,5.53778,11.9392)">
        <path d="M95.485,429.277L95.485,241.455C95.485,201.043 111.539,162.287 140.114,133.712C168.689,105.137 207.445,89.084 247.856,89.084L435.678,89.084L435.678,171.389L238.532,171.389C204.985,171.389 177.79,198.584 177.79,232.13L177.79,429.277L95.485,429.277ZM973.439,626.845L973.439,814.667C973.439,855.078 957.386,893.834 928.811,922.409C900.236,950.984 861.48,967.038 821.068,967.038L633.246,967.038L633.246,884.733L830.393,884.733C863.939,884.733 891.134,857.538 891.134,823.991L891.134,626.845L973.439,626.845Z"/>
    </g>
    <g transform="matrix(-1.29082,-1.29082,0.645412,-0.645412,1607.16,1607.91)">
        <path d="M816.481,209.228C822.301,197.588 831.737,197.588 837.558,209.228C857.177,248.466 899.806,333.725 927.356,388.824C931.618,397.349 932.893,410.169 930.586,421.307C928.28,432.445 922.845,439.708 916.817,439.708L737.221,439.708C731.193,439.708 725.759,432.445 723.452,421.307C721.146,410.169 722.421,397.349 726.683,388.824C754.233,333.725 796.862,248.466 816.481,209.228Z"/>
    </g>
    <g transform="matrix(0.707107,0.707107,-1.13519,1.13519,1400.96,-846.482)">
        <path d="M371.602,629.543C382.82,629.543 393.578,632.319 401.51,637.26C409.442,642.201 413.898,648.902 413.898,655.889L413.898,824.565C413.898,839.115 394.962,850.911 371.602,850.911L371.599,850.911C360.381,850.911 349.623,848.135 341.691,843.194C333.759,838.253 329.303,831.552 329.303,824.565L329.303,655.889C329.303,648.902 333.759,642.201 341.691,637.26C349.623,632.319 360.381,629.543 371.599,629.543L371.602,629.543Z"/>
    </g>
    <g transform="matrix(1.29082,1.29082,-0.645412,0.645412,-527.164,-527.908)">
        <path d="M816.481,209.228C822.301,197.588 831.737,197.588 837.558,209.228C857.177,248.466 899.806,333.725 927.356,388.824C931.618,397.349 932.893,410.169 930.586,421.307C928.28,432.445 922.845,439.708 916.817,439.708L737.221,439.708C731.193,439.708 725.759,432.445 723.452,421.307C721.146,410.169 722.421,397.349 726.683,388.824C754.233,333.725 796.862,248.466 816.481,209.228Z"/>
    </g>
    <g transform="matrix(-0.707107,-0.707107,1.13519,-1.13519,-320.959,1926.48)">
        <path d="M371.602,629.543C382.82,629.543 393.578,632.319 401.51,637.26C409.442,642.201 413.898,648.902 413.898,655.889L413.898,824.565C413.898,839.115 394.962,850.911 371.602,850.911L371.599,850.911C360.381,850.911 349.623,848.135 341.691,843.194C333.759,838.253 329.303,831.552 329.303,824.565L329.303,655.889C329.303,648.902 333.759,642.201 341.691,637.26C349.623,632.319 360.381,629.543 371.599,629.543L371.602,629.543Z"/>
    </g>
</svg>
