<?xml version="1.0" encoding="UTF-8" standalone="no"?>
<!DOCTYPE svg PUBLIC "-//W3C//DTD SVG 1.1//EN" "http://www.w3.org/Graphics/SVG/1.1/DTD/svg11.dtd">
<svg width="100%" height="100%" viewBox="0 0 1080 1080" version="1.1" xmlns="http://www.w3.org/2000/svg" xmlns:xlink="http://www.w3.org/1999/xlink" xml:space="preserve" xmlns:serif="http://www.serif.com/" style="fill-rule:evenodd;clip-rule:evenodd;stroke-linejoin:round;stroke-miterlimit:2;">
    <g transform="matrix(1,0,0,1,-49.392,-30.783)">
        <path d="M199.807,728.516L199.807,306.106C199.807,272.978 212.967,241.208 236.392,217.783C259.817,194.358 291.587,181.198 324.715,181.198L698.561,181.198L698.561,263.229L327.428,263.229C302.25,263.229 281.838,283.641 281.838,308.819L281.838,728.516L199.807,728.516ZM978.977,413.049L978.977,835.46C978.977,868.588 965.817,900.358 942.392,923.783C918.967,947.208 887.197,960.368 854.069,960.368L480.223,960.368L480.223,878.337L851.356,878.337C876.534,878.337 896.946,857.925 896.946,832.747L896.946,413.049L978.977,413.049Z"/>
    </g>
    <g transform="matrix(2.1915e-16,1.42069,-0.91275,4.46444e-16,1050.51,-982.265)">
        <path d="M811.907,218.377C815.535,211.121 821.112,206.877 827.019,206.877C832.927,206.877 838.504,211.121 842.132,218.377C863.613,261.339 903.198,340.509 928.741,391.595C933.233,400.58 934.045,412.764 930.832,422.993C927.619,433.221 920.943,439.708 913.628,439.708C866.431,439.708 787.607,439.708 740.411,439.708C733.096,439.708 726.42,433.221 723.207,422.993C719.994,412.764 720.805,400.58 725.298,391.595C750.841,340.509 790.426,261.339 811.907,218.377Z"/>
    </g>
    <g transform="matrix(-4.5166e-17,-1.42069,0.91275,-3.34664e-16,29.4875,2065.81)">
        <path d="M811.907,218.377C815.535,211.121 821.112,206.877 827.019,206.877C832.927,206.877 838.504,211.121 842.132,218.377C863.613,261.339 903.198,340.509 928.741,391.595C933.233,400.58 934.045,412.764 930.832,422.993C927.619,433.221 920.943,439.708 913.628,439.708C866.431,439.708 787.607,439.708 740.411,439.708C733.096,439.708 726.42,433.221 723.207,422.993C719.994,412.764 720.805,400.58 725.298,391.595C750.841,340.509 790.426,261.339 811.907,218.377Z"/>
    </g>
</svg>
