<?xml version="1.0" encoding="UTF-8" standalone="no"?>
<!DOCTYPE svg PUBLIC "-//W3C//DTD SVG 1.1//EN" "http://www.w3.org/Graphics/SVG/1.1/DTD/svg11.dtd">
<svg width="100%" height="100%" viewBox="0 0 1080 1080" version="1.1" xmlns="http://www.w3.org/2000/svg" xmlns:xlink="http://www.w3.org/1999/xlink" xml:space="preserve" xmlns:serif="http://www.serif.com/" style="fill-rule:evenodd;clip-rule:evenodd;stroke-linejoin:round;stroke-miterlimit:2;">
    <g transform="matrix(1,0,0,1,5.53778,11.9392)">
        <path d="M95.485,429.277L95.485,241.455C95.485,201.043 111.539,162.287 140.114,133.712C168.689,105.137 207.445,89.084 247.856,89.084L435.678,89.084L435.678,171.389L238.532,171.389C204.985,171.389 177.79,198.584 177.79,232.13L177.79,429.277L95.485,429.277ZM633.246,89.084L821.068,89.084C861.48,89.084 900.236,105.137 928.811,133.712C957.386,162.287 973.439,201.043 973.439,241.455L973.439,429.277L891.134,429.277L891.134,232.13C891.134,198.584 863.939,171.389 830.393,171.389L633.246,171.389L633.246,89.084ZM973.439,626.845L973.439,814.667C973.439,855.078 957.386,893.834 928.811,922.409C900.236,950.984 861.48,967.038 821.068,967.038L633.246,967.038L633.246,884.733L830.393,884.733C863.939,884.733 891.134,857.538 891.134,823.991L891.134,626.845L973.439,626.845ZM435.678,967.038L247.856,967.038C207.445,967.038 168.689,950.984 140.114,922.409C111.539,893.834 95.485,855.078 95.485,814.667L95.485,626.845L177.79,626.845L177.79,823.991C177.79,857.538 204.985,884.733 238.532,884.733L435.678,884.733L435.678,967.038Z"/>
    </g>
</svg>
