<?xml version="1.0" encoding="UTF-8" standalone="no"?>
<!DOCTYPE svg PUBLIC "-//W3C//DTD SVG 1.1//EN" "http://www.w3.org/Graphics/SVG/1.1/DTD/svg11.dtd">
<svg width="100%" height="100%" viewBox="0 0 30 30" version="1.1" xmlns="http://www.w3.org/2000/svg" xmlns:xlink="http://www.w3.org/1999/xlink" xml:space="preserve" xmlns:serif="http://www.serif.com/" style="fill-rule:evenodd;clip-rule:evenodd;stroke-linejoin:round;stroke-miterlimit:2;">
    <g transform="matrix(1.20897,0,0,1.20897,-3.13458,-3.13458)">
        <path d="M5.627,10.989C5.627,8.959 7.273,7.313 9.303,7.313L20.697,7.313C22.727,7.313 24.373,8.959 24.373,10.989L24.373,23.731C24.373,25.761 22.727,27.407 20.697,27.407L9.303,27.407C7.273,27.407 5.627,25.761 5.627,23.731L5.627,10.989ZM16.858,16.158L16.858,14.939L12.959,14.939L12.959,19.782L16.858,19.782L16.858,18.562L14.327,18.562L14.327,17.921L16.632,17.921L16.632,16.701L14.327,16.701L14.327,16.158L16.858,16.158ZM7.602,19.782L9.407,19.782C11.098,19.782 12.297,18.774 12.297,17.357C12.297,15.94 11.098,14.939 9.407,14.939L7.602,14.939L7.602,19.782ZM8.97,18.541L8.97,16.179L9.632,16.179C10.365,16.179 10.887,16.666 10.887,17.357C10.887,18.047 10.365,18.541 9.632,18.541L8.97,18.541ZM20.855,14.939L19.769,17.773L18.676,14.939L17.133,14.939L18.994,19.782L20.537,19.782L22.398,14.939L20.855,14.939Z"/>
    </g>
    <g transform="matrix(1.11109,0,0,1.11109,3.13725,0)">
        <path d="M16.62,2.898L16.62,3.118C16.62,3.665 16.176,4.109 15.629,4.109L5.724,4.109C5.178,4.109 4.734,3.665 4.734,3.118L4.734,2.898C4.734,2.352 5.178,1.908 5.724,1.908L15.629,1.908C16.176,1.908 16.62,2.352 16.62,2.898Z"/>
    </g>
    <g transform="matrix(1.11109,0,0,1.11109,3.13725,0)">
        <path d="M13.538,1.387L13.538,1.695C13.538,2.46 12.917,3.082 12.151,3.082L9.055,3.082C8.29,3.082 7.668,2.46 7.668,1.695L7.668,1.387C7.668,0.621 8.29,0 9.055,0L12.151,0C12.917,0 13.538,0.621 13.538,1.387Z"/>
    </g>
</svg>
