<?xml version="1.0" encoding="UTF-8" standalone="no"?>
<!DOCTYPE svg PUBLIC "-//W3C//DTD SVG 1.1//EN" "http://www.w3.org/Graphics/SVG/1.1/DTD/svg11.dtd">
<svg class="icon" width="100%" height="100%" viewBox="0 0 23 23" version="1.1" xmlns="http://www.w3.org/2000/svg" xmlns:xlink="http://www.w3.org/1999/xlink" xml:space="preserve" xmlns:serif="http://www.serif.com/" style="fill-rule:evenodd;clip-rule:evenodd;stroke-linejoin:round;stroke-miterlimit:2;">
    <path d="M11.5,23C5.149,23 0,17.851 0,11.5C0,5.149 5.149,0 11.5,0C17.851,0 23,5.149 23,11.5C23,17.851 17.851,23 11.5,23ZM10.21,16.879L12.776,16.879L12.776,10.006L10.21,10.006L10.21,16.879ZM11.513,9.274C12.231,9.274 12.816,8.663 12.816,7.945C12.816,7.253 12.231,6.642 11.513,6.642C10.769,6.642 10.184,7.253 10.184,7.945C10.184,8.663 10.769,9.274 11.513,9.274Z"/>
</svg>
