<?xml version="1.0" encoding="UTF-8" standalone="no"?>
<!DOCTYPE svg PUBLIC "-//W3C//DTD SVG 1.1//EN" "http://www.w3.org/Graphics/SVG/1.1/DTD/svg11.dtd">
<svg width="100%" height="100%" viewBox="0 0 1080 1080" version="1.1" xmlns="http://www.w3.org/2000/svg" xmlns:xlink="http://www.w3.org/1999/xlink" xml:space="preserve" xmlns:serif="http://www.serif.com/" style="fill-rule:evenodd;clip-rule:evenodd;stroke-linejoin:round;stroke-miterlimit:2;">
    <g transform="matrix(0.264272,1.26518,-1.26518,0.264272,1115.23,-460.735)">
        <path d="M666.912,262.222C850.006,262.222 998.654,410.87 998.654,593.963C998.654,777.056 850.006,925.705 666.912,925.705C483.819,925.705 335.171,777.056 335.171,593.963L433.653,593.963C433.653,722.703 538.173,827.223 666.912,827.223C795.652,827.223 900.172,722.703 900.172,593.963C900.172,465.224 795.652,360.704 666.912,360.704L666.912,262.222Z"/>
    </g>
    <g transform="matrix(0.182346,0.872841,-0.872841,0.182346,1044.69,20.6748)">
        <path d="M15.779,418.646C21.108,407.99 32,401.258 43.915,401.258C55.829,401.258 66.721,407.99 72.05,418.646C103.301,481.148 153.147,580.84 182.044,638.635C186.92,648.386 186.399,659.966 180.667,669.24C174.936,678.514 164.811,684.159 153.909,684.159C93.715,684.159 -5.885,684.159 -66.08,684.159C-76.982,684.159 -87.106,678.514 -92.838,669.24C-98.57,659.966 -99.091,648.386 -94.215,638.635C-65.317,580.84 -15.472,481.148 15.779,418.646Z"/>
    </g>
</svg>
