<?xml version="1.0" encoding="UTF-8" standalone="no"?>
<!DOCTYPE svg PUBLIC "-//W3C//DTD SVG 1.1//EN" "http://www.w3.org/Graphics/SVG/1.1/DTD/svg11.dtd">
<svg width="100%" height="100%" viewBox="0 0 1080 1080" version="1.1" xmlns="http://www.w3.org/2000/svg" xmlns:xlink="http://www.w3.org/1999/xlink" xml:space="preserve" xmlns:serif="http://www.serif.com/" style="fill-rule:evenodd;clip-rule:evenodd;stroke-linejoin:round;stroke-miterlimit:2;">
    <g transform="matrix(0.996821,0,0,0.972414,7.23683,26.5064)">
        <path d="M95.485,429.277L95.485,241.455C95.485,201.043 111.539,162.287 140.114,133.712C168.689,105.137 207.445,89.084 247.856,89.084L435.678,89.084L435.678,171.389L238.532,171.389C204.985,171.389 177.79,198.584 177.79,232.13L177.79,429.277L95.485,429.277ZM973.439,626.845L973.439,814.667C973.439,855.078 957.386,893.834 928.811,922.409C900.236,950.984 861.48,967.038 821.068,967.038L435.678,967.038L435.678,884.733L830.393,884.733C863.939,884.733 891.134,857.538 891.134,823.991L891.134,626.845L973.439,626.845ZM435.678,967.038L247.856,967.038C207.445,967.038 168.689,950.984 140.114,922.409C111.539,893.834 95.485,855.078 95.485,814.667L95.485,429.277L177.79,429.277L177.79,823.991C177.79,857.538 204.985,884.733 238.532,884.733L435.678,884.733L435.678,967.038Z"/>
    </g>
    <g transform="matrix(-1.57687,-1.57687,0.788434,-0.788434,1512.67,2186.25)">
        <path d="M810.251,221.689C814.698,212.795 820.73,207.798 827.019,207.798C833.309,207.798 839.341,212.795 843.788,221.689C861.204,256.522 889.102,312.316 912.314,358.741C919.096,372.306 921.125,392.706 917.455,410.429C913.784,428.152 905.137,439.708 895.545,439.708C854.527,439.708 799.512,439.708 758.493,439.708C748.902,439.708 740.255,428.152 736.584,410.429C732.913,392.706 734.942,372.306 741.725,358.741C764.937,312.316 792.834,256.522 810.251,221.689Z"/>
    </g>
    <g transform="matrix(1.57687,1.57687,-0.788434,0.788434,-178.173,-1339.31)">
        <path d="M810.251,221.689C814.698,212.795 820.73,207.798 827.019,207.798C833.309,207.798 839.341,212.795 843.788,221.689C861.204,256.522 889.102,312.316 912.314,358.741C919.096,372.306 921.125,392.706 917.455,410.429C913.784,428.152 905.137,439.708 895.545,439.708C854.527,439.708 799.512,439.708 758.493,439.708C748.902,439.708 740.255,428.152 736.584,410.429C732.913,392.706 734.942,372.306 741.725,358.741C764.937,312.316 792.834,256.522 810.251,221.689Z"/>
    </g>
    <g transform="matrix(0.8638,0.8638,-1.38675,1.38675,1371.94,-923.198)">
        <path d="M371.601,629.543C394.961,629.543 413.898,641.339 413.898,655.89L413.898,824.564C413.898,839.115 394.961,850.911 371.601,850.911L371.6,850.911C348.24,850.911 329.303,839.115 329.303,824.564C329.303,781.973 329.303,698.481 329.303,655.89C329.303,641.339 348.24,629.543 371.6,629.543L371.601,629.543Z"/>
    </g>
</svg>
