<?xml version="1.0" encoding="UTF-8" standalone="no"?>
<!DOCTYPE svg PUBLIC "-//W3C//DTD SVG 1.1//EN" "http://www.w3.org/Graphics/SVG/1.1/DTD/svg11.dtd">
<svg width="100%" height="100%" viewBox="0 0 1080 1080" version="1.1" xmlns="http://www.w3.org/2000/svg" xmlns:xlink="http://www.w3.org/1999/xlink" xml:space="preserve" xmlns:serif="http://www.serif.com/" style="fill-rule:evenodd;clip-rule:evenodd;stroke-linejoin:round;stroke-miterlimit:2;">
    <g>
        <g transform="matrix(1,0,0,1,-49.392,-30.783)">
            <path d="M854.069,181.198C887.197,181.198 918.967,194.358 942.392,217.783C965.817,241.208 978.977,272.978 978.977,306.106L978.977,835.46C978.977,868.588 965.817,900.358 942.392,923.783C918.967,947.208 887.197,960.368 854.069,960.368L324.715,960.368C291.587,960.368 259.817,947.208 236.392,923.783C212.967,900.358 199.807,868.588 199.807,835.46L199.807,306.106C199.807,272.978 212.967,241.208 236.392,217.783C259.817,194.358 291.587,181.198 324.715,181.198L854.069,181.198ZM851.356,263.229L327.428,263.229C302.25,263.229 281.838,283.641 281.838,308.819L281.838,832.747C281.838,857.925 302.25,878.337 327.428,878.337L851.356,878.337C876.534,878.337 896.946,857.925 896.946,832.747L896.946,308.819C896.946,283.641 876.534,263.229 851.356,263.229Z"/>
        </g>
        <g transform="matrix(0.554024,0.554024,-0.554024,0.554024,517.611,-214.203)">
            <path d="M383.958,777.325L305.639,560.132L364.984,560.132L429.98,747.047L401.721,747.047L469.543,560.132L522.832,560.132L588.636,747.047L560.376,747.047L627.391,560.132L683.102,560.132L604.38,777.325L543.421,777.325L485.691,617.055L504.262,617.055L444.513,777.325L383.958,777.325Z" style="fill-rule:nonzero;"/>
            <path d="M990.725,556.903C1007.95,556.903 1023.22,560.334 1036.55,567.197C1049.87,574.06 1060.36,584.557 1068.03,598.686C1075.7,612.816 1079.54,630.915 1079.54,652.984L1079.54,777.325L1016.56,777.325L1016.56,662.673C1016.56,645.179 1012.93,632.261 1005.66,623.918C998.395,615.574 988.168,611.403 974.98,611.403C965.83,611.403 957.621,613.489 950.355,617.66C943.088,621.832 937.436,628.089 933.399,636.433C929.362,644.776 927.343,655.407 927.343,668.325L927.343,777.325L864.366,777.325L864.366,662.673C864.366,645.179 860.8,632.261 853.667,623.918C846.535,615.574 836.375,611.403 823.188,611.403C814.037,611.403 805.828,613.489 798.562,617.66C791.295,621.832 785.643,628.089 781.606,636.433C777.569,644.776 775.551,655.407 775.551,668.325L775.551,777.325L712.573,777.325L712.573,560.132L772.725,560.132L772.725,619.477L761.421,602.118C768.957,587.315 779.655,576.079 793.516,568.408C807.376,560.738 823.188,556.903 840.951,556.903C860.867,556.903 878.293,561.949 893.23,572.042C908.167,582.134 918.058,597.542 922.903,618.266L900.699,612.21C907.966,595.255 919.606,581.798 935.619,571.84C951.633,561.882 970.001,556.903 990.725,556.903Z" style="fill-rule:nonzero;"/>
        </g>
    </g>
</svg>
